<svg width="87" height="34" viewBox="0 0 87 34" fill="none" xmlns="http://www.w3.org/2000/svg">
<path d="M10.2447 31.8377C10.1657 31.759 10.0885 31.6786 10.0124 31.596C7.33772 28.6832 7.42454 24.2021 10.2092 21.3939L18.9808 12.5442C19.681 11.8383 20.8233 11.8315 21.5314 12.5296L21.5387 12.5369C22.2395 13.2356 22.2435 14.3688 21.5455 15.0726L12.7739 23.9222C11.3424 25.3663 11.2978 27.6703 12.673 29.1677C13.3653 29.9181 14.3068 30.3577 15.3285 30.3998C16.3422 30.442 17.3113 30.0907 18.0601 29.41L27.0752 20.5777C27.7817 19.8852 28.9155 19.8909 29.6146 20.5884L29.6253 20.5991C30.3233 21.3073 30.3143 22.4456 29.6039 23.142L20.5261 32.0344C19.0648 33.3806 17.1653 34.0765 15.1774 33.9933C13.3022 33.9152 11.5634 33.1519 10.2447 31.8377Z" fill="url(#paint0_linear_107_77)"/>
<path d="M2.1823 23.7844C2.10336 23.7058 2.02612 23.6254 1.95001 23.5427C-0.724094 20.63 -0.637833 16.1489 2.14678 13.3407L11.0413 4.36848C11.7415 3.66249 12.8832 3.65574 13.5919 4.35331L13.5992 4.36061C14.3 5.0593 14.304 6.19193 13.6066 6.89567L4.71207 15.8679C3.28001 17.3119 3.23547 19.6159 4.61058 21.1134C5.30236 21.8615 6.24447 22.3033 7.26664 22.346C8.28036 22.3882 9.24953 22.0369 9.99825 21.3556L18.9824 12.5532C19.6894 11.8612 20.8227 11.8669 21.5218 12.5639L21.533 12.5751C22.231 13.2833 22.2214 14.4222 21.5111 15.118L12.4649 23.9795C11.0035 25.3257 9.10407 26.0216 7.11611 25.9384C5.24035 25.8603 3.50102 25.0975 2.1823 23.7828V23.7844Z" fill="url(#paint1_linear_107_77)"/>
<path d="M33.4716 16.6986C31.8631 15.095 29.6969 14.3834 27.59 14.5554C27.7625 12.4548 27.0488 10.2947 25.4402 8.69157C25.4132 8.66459 25.3816 8.64548 25.3529 8.62074C25.3281 8.59264 25.3089 8.5606 25.2818 8.53362C23.6733 6.92996 21.5072 6.21834 19.4003 6.39034C19.5728 4.28979 18.859 2.12965 17.2505 0.526545C16.5463 -0.175515 15.404 -0.175515 14.6999 0.526545C13.9957 1.2286 13.9957 2.36741 14.6999 3.06947C16.1984 4.56353 16.1984 6.99516 14.6999 8.48921L5.94799 17.2147C5.2438 17.9167 5.2438 19.0555 5.94799 19.7576C5.95588 19.7654 5.9649 19.7699 5.9728 19.7778C5.98012 19.7857 5.9852 19.7947 5.99309 19.802C6.69728 20.504 7.83954 20.504 8.54373 19.802L17.2956 11.0765C18.7942 9.58249 21.2332 9.58249 22.7318 11.0765C22.7588 11.1035 22.7904 11.1226 22.8191 11.1474C22.844 11.1755 22.8631 11.2075 22.8902 11.2345C24.3888 12.7286 24.3888 15.1602 22.8902 16.6542L14.1383 25.3797C13.4341 26.0817 13.4341 27.2205 14.1383 27.9226C14.1462 27.9305 14.1552 27.935 14.1626 27.9428C14.1699 27.9507 14.175 27.9597 14.1829 27.9676C14.887 28.6696 16.0293 28.6696 16.7335 27.9676L25.4854 19.2421C26.9839 17.7481 29.4229 17.7481 30.9215 19.2421C31.6257 19.9442 32.768 19.9442 33.4721 19.2421C34.1763 18.5401 34.1758 17.4013 33.4716 16.6986Z" fill="url(#paint2_linear_107_77)"/>
<path d="M40.5475 22.418V9.55372H36V5.00082H50.3301V9.55372H45.7826V22.418H40.5475Z" fill="url(#paint3_linear_107_77)"/>
<path d="M51.6832 22.418V5H55.9867L62.1979 16.3713H59.9353L65.969 5H70.2724L70.3168 22.418H65.5475L65.5031 13.062H66.2574L62.1313 20.8503H59.8243L55.5209 13.062H56.4526V22.418H51.6832Z" fill="url(#paint4_linear_107_77)"/>
<path d="M76.2174 22.418V9.55372H71.6699V5.00082H86V9.55372H81.4525V22.418H76.2174Z" fill="url(#paint5_linear_107_77)"/>
<path d="M40.4831 26.3097C40.6222 26.0392 40.8122 25.8272 41.0525 25.6745C41.2928 25.5218 41.5598 25.4454 41.8533 25.4454C42.1979 25.4454 42.4988 25.5372 42.7562 25.7191C43.0127 25.9019 43.2005 26.161 43.3181 26.4965H42.8234C42.7354 26.2869 42.6097 26.1261 42.4448 26.0132C42.28 25.9003 42.0825 25.8434 41.8533 25.8434C41.6241 25.8434 41.4341 25.9003 41.2588 26.0132C41.0828 26.1261 40.9453 26.2861 40.8455 26.4941C40.7456 26.702 40.6961 26.9449 40.6961 27.2235C40.6961 27.5021 40.7456 27.7409 40.8455 27.9489C40.9453 28.1568 41.0828 28.3169 41.2588 28.4298C41.4341 28.5427 41.6322 28.5995 41.8533 28.5995C42.0744 28.5995 42.28 28.5443 42.4448 28.433C42.6097 28.3217 42.7362 28.1617 42.8234 27.9521H43.3181C43.2005 28.2844 43.0127 28.5411 42.7562 28.7222C42.4988 28.9033 42.1986 28.9935 41.8533 28.9935C41.5598 28.9935 41.2928 28.918 41.0525 28.7669C40.8122 28.6158 40.6222 28.4054 40.4831 28.1365C40.3441 27.8677 40.2746 27.5639 40.2746 27.2243C40.2746 26.8848 40.3441 26.581 40.4831 26.3097Z" fill="url(#paint6_linear_107_77)"/>
<path d="M45.4676 28.7718C45.225 28.6207 45.0342 28.4095 44.8938 28.139C44.7533 27.8685 44.683 27.5639 44.683 27.2243C44.683 26.8848 44.7533 26.581 44.8938 26.3097C45.0342 26.0392 45.225 25.828 45.4676 25.6769C45.7093 25.5258 45.977 25.4503 46.2706 25.4503C46.5641 25.4503 46.8362 25.5258 47.078 25.6769C47.3198 25.828 47.5106 26.0384 47.6496 26.3073C47.7886 26.5761 47.8589 26.8824 47.8589 27.2243C47.8589 27.5663 47.7894 27.8726 47.6496 28.1414C47.5106 28.4103 47.3198 28.6207 47.078 28.7718C46.8362 28.9229 46.5671 28.9984 46.2706 28.9984C45.9741 28.9984 45.7093 28.9229 45.4676 28.7718ZM46.8673 28.4355C47.044 28.3226 47.183 28.1617 47.2851 27.9522C47.3864 27.7426 47.4367 27.5005 47.4367 27.2243C47.4367 26.9482 47.3864 26.702 47.2851 26.4949C47.1838 26.287 47.0455 26.1269 46.8702 26.014C46.695 25.9011 46.4954 25.8443 46.2713 25.8443C46.0473 25.8443 45.8476 25.9011 45.6724 26.014C45.4971 26.1269 45.3581 26.287 45.2576 26.4949C45.1563 26.7028 45.1052 26.9457 45.1052 27.2243C45.1052 27.503 45.1555 27.7426 45.2576 27.9522C45.3589 28.1617 45.4979 28.3226 45.6746 28.4355C45.8513 28.5484 46.0502 28.6052 46.2713 28.6052C46.4924 28.6052 46.6906 28.5484 46.8673 28.4355Z" fill="url(#paint7_linear_107_77)"/>
<path d="M51.7957 28.9634H51.383L49.723 26.1984V28.9634H49.3104V25.4852H49.723L51.383 28.2454V25.4852H51.7957V28.9634Z" fill="url(#paint8_linear_107_77)"/>
<path d="M53.8476 28.8765C53.6827 28.7953 53.554 28.6824 53.4601 28.5378C53.3662 28.3932 53.3181 28.2267 53.3152 28.0374H53.7551C53.7707 28.2007 53.8313 28.3372 53.9385 28.4485C54.0457 28.5597 54.2025 28.615 54.4081 28.615C54.6136 28.615 54.76 28.5614 54.8732 28.4533C54.9863 28.3453 55.0432 28.2064 55.0432 28.0374C55.0432 27.9042 55.01 27.797 54.9434 27.7133C54.8769 27.6305 54.794 27.5671 54.6942 27.5241C54.5944 27.481 54.4598 27.4347 54.2905 27.3843C54.082 27.3242 53.9149 27.2649 53.7892 27.2048C53.6635 27.1447 53.5562 27.0513 53.4675 26.923C53.378 26.7954 53.3337 26.6232 53.3337 26.4072C53.3337 26.2179 53.3773 26.0497 53.4653 25.9035C53.5533 25.7573 53.676 25.6444 53.835 25.5648C53.994 25.4852 54.1759 25.4454 54.3814 25.4454C54.6779 25.4454 54.9205 25.5266 55.109 25.6899C55.2976 25.8532 55.4048 26.0684 55.4285 26.3381H54.9752C54.9597 26.2049 54.8961 26.0879 54.7844 25.9872C54.6728 25.8857 54.5241 25.8353 54.34 25.8353C54.1677 25.8353 54.0265 25.884 53.9178 25.9823C53.8091 26.0806 53.7544 26.2171 53.7544 26.3933C53.7544 26.5201 53.7869 26.6224 53.852 26.702C53.9171 26.7816 53.9969 26.8425 54.0923 26.884C54.1877 26.9254 54.3215 26.9725 54.4938 27.0261C54.7024 27.0895 54.8702 27.1512 54.9974 27.213C55.1246 27.2747 55.2333 27.3689 55.3242 27.4973C55.4144 27.6256 55.4603 27.7986 55.4603 28.0179C55.4603 28.1877 55.4196 28.3469 55.3383 28.4964C55.2562 28.6458 55.1357 28.7669 54.9752 28.8603C54.8147 28.9537 54.6262 29 54.4081 29C54.1899 29 54.0125 28.9578 53.8476 28.8765Z" fill="url(#paint9_linear_107_77)"/>
<path d="M57.379 25.4901V27.6873C57.379 27.996 57.4478 28.2259 57.5853 28.3754C57.7228 28.5248 57.9143 28.5995 58.1591 28.5995C58.4038 28.5995 58.5902 28.5248 58.7284 28.3754C58.866 28.2259 58.9348 27.9968 58.9348 27.6873V25.4901H59.3481V27.6825C59.3481 27.9716 59.2949 28.2153 59.1891 28.4127C59.0834 28.6101 58.9407 28.7571 58.7603 28.8538C58.5806 28.9505 58.3787 28.9984 58.1547 28.9984C57.9306 28.9984 57.7288 28.9505 57.5491 28.8538C57.3694 28.7571 57.2274 28.6109 57.1224 28.4127C57.0182 28.2153 56.9664 27.9716 56.9664 27.6825V25.4901H57.379Z" fill="url(#paint10_linear_107_77)"/>
<path d="M61.3564 28.5947H62.4634V28.9635H60.9438V25.4901H61.3564V28.5947Z" fill="url(#paint11_linear_107_77)"/>
<path d="M65.756 25.4901V25.8589H64.8945V28.9626H64.4812V25.8589H63.6153V25.4901H65.756Z" fill="url(#paint12_linear_107_77)"/>
<path d="M69.0397 28.191H67.6607L67.4071 28.9635H66.9716L68.1147 25.5105H68.5909L69.7289 28.9635H69.2934L69.0397 28.191ZM68.9222 27.8223L68.3506 26.0685L67.779 27.8223H68.9222Z" fill="url(#paint13_linear_107_77)"/>
<path d="M73.6212 28.9634H73.2086L71.5486 26.1984V28.9634H71.136V25.4852H71.5486L73.2086 28.2454V25.4852H73.6212V28.9634Z" fill="url(#paint14_linear_107_77)"/>
<path d="M75.2857 26.3097C75.4247 26.0392 75.6147 25.8272 75.855 25.6745C76.0953 25.5218 76.3623 25.4454 76.6558 25.4454C77.0004 25.4454 77.3013 25.5372 77.5587 25.7191C77.8153 25.9019 78.0031 26.161 78.1206 26.4965H77.626C77.538 26.2869 77.4123 26.1261 77.2474 26.0132C77.0825 25.9003 76.8851 25.8434 76.6558 25.8434C76.4266 25.8434 76.2366 25.9003 76.0613 26.0132C75.8854 26.1261 75.7478 26.2861 75.648 26.4941C75.5482 26.702 75.4986 26.9449 75.4986 27.2235C75.4986 27.5021 75.5482 27.7409 75.648 27.9489C75.7478 28.1568 75.8854 28.3169 76.0613 28.4298C76.2366 28.5427 76.4347 28.5995 76.6558 28.5995C76.8769 28.5995 77.0825 28.5443 77.2474 28.433C77.4123 28.3217 77.5387 28.1617 77.626 27.9521H78.1206C78.0031 28.2844 77.8153 28.5411 77.5587 28.7222C77.3013 28.9033 77.0011 28.9935 76.6558 28.9935C76.3623 28.9935 76.0953 28.918 75.855 28.7669C75.6147 28.6158 75.4247 28.4054 75.2857 28.1365C75.1467 27.8677 75.0772 27.5639 75.0772 27.2243C75.0772 26.8848 75.1467 26.581 75.2857 26.3097Z" fill="url(#paint15_linear_107_77)"/>
<path d="M81.8534 25.4901L80.8241 27.6524V28.9626H80.4107V27.6524L79.377 25.4901H79.8347L80.6148 27.2487L81.3949 25.4901H81.8534Z" fill="url(#paint16_linear_107_77)"/>
<defs>
<linearGradient id="paint0_linear_107_77" x1="0.00129939" y1="17.0009" x2="73.6619" y2="17.0009" gradientUnits="userSpaceOnUse">
<stop stop-color="#64E5FF"/>
<stop offset="1" stop-color="#51B1FF"/>
</linearGradient>
<linearGradient id="paint1_linear_107_77" x1="0.00129939" y1="17.0009" x2="73.6619" y2="17.0009" gradientUnits="userSpaceOnUse">
<stop stop-color="#64E5FF"/>
<stop offset="1" stop-color="#51B1FF"/>
</linearGradient>
<linearGradient id="paint2_linear_107_77" x1="0.00129939" y1="17.0009" x2="73.6619" y2="17.0009" gradientUnits="userSpaceOnUse">
<stop stop-color="#64E5FF"/>
<stop offset="1" stop-color="#51B1FF"/>
</linearGradient>
<linearGradient id="paint3_linear_107_77" x1="-10.6072" y1="15.2566" x2="85.9991" y2="15.2566" gradientUnits="userSpaceOnUse">
<stop stop-color="#64E5FF"/>
<stop offset="1" stop-color="#51B1FF"/>
</linearGradient>
<linearGradient id="paint4_linear_107_77" x1="-10.6072" y1="15.2566" x2="85.9991" y2="15.2566" gradientUnits="userSpaceOnUse">
<stop stop-color="#64E5FF"/>
<stop offset="1" stop-color="#51B1FF"/>
</linearGradient>
<linearGradient id="paint5_linear_107_77" x1="-10.6072" y1="15.2566" x2="85.9991" y2="15.2566" gradientUnits="userSpaceOnUse">
<stop stop-color="#64E5FF"/>
<stop offset="1" stop-color="#51B1FF"/>
</linearGradient>
<linearGradient id="paint6_linear_107_77" x1="-10.6072" y1="15.2566" x2="85.9991" y2="15.2566" gradientUnits="userSpaceOnUse">
<stop stop-color="#64E5FF"/>
<stop offset="1" stop-color="#51B1FF"/>
</linearGradient>
<linearGradient id="paint7_linear_107_77" x1="-10.6072" y1="15.2566" x2="85.9991" y2="15.2566" gradientUnits="userSpaceOnUse">
<stop stop-color="#64E5FF"/>
<stop offset="1" stop-color="#51B1FF"/>
</linearGradient>
<linearGradient id="paint8_linear_107_77" x1="-10.6072" y1="15.2566" x2="85.9991" y2="15.2566" gradientUnits="userSpaceOnUse">
<stop stop-color="#64E5FF"/>
<stop offset="1" stop-color="#51B1FF"/>
</linearGradient>
<linearGradient id="paint9_linear_107_77" x1="-10.6072" y1="15.2566" x2="85.9991" y2="15.2566" gradientUnits="userSpaceOnUse">
<stop stop-color="#64E5FF"/>
<stop offset="1" stop-color="#51B1FF"/>
</linearGradient>
<linearGradient id="paint10_linear_107_77" x1="-10.6072" y1="15.2566" x2="85.9991" y2="15.2566" gradientUnits="userSpaceOnUse">
<stop stop-color="#64E5FF"/>
<stop offset="1" stop-color="#51B1FF"/>
</linearGradient>
<linearGradient id="paint11_linear_107_77" x1="-10.6072" y1="15.2566" x2="85.9991" y2="15.2566" gradientUnits="userSpaceOnUse">
<stop stop-color="#64E5FF"/>
<stop offset="1" stop-color="#51B1FF"/>
</linearGradient>
<linearGradient id="paint12_linear_107_77" x1="-10.6072" y1="15.2566" x2="85.9991" y2="15.2566" gradientUnits="userSpaceOnUse">
<stop stop-color="#64E5FF"/>
<stop offset="1" stop-color="#51B1FF"/>
</linearGradient>
<linearGradient id="paint13_linear_107_77" x1="-10.6072" y1="15.2566" x2="85.9991" y2="15.2566" gradientUnits="userSpaceOnUse">
<stop stop-color="#64E5FF"/>
<stop offset="1" stop-color="#51B1FF"/>
</linearGradient>
<linearGradient id="paint14_linear_107_77" x1="-10.6072" y1="15.2566" x2="85.9991" y2="15.2566" gradientUnits="userSpaceOnUse">
<stop stop-color="#64E5FF"/>
<stop offset="1" stop-color="#51B1FF"/>
</linearGradient>
<linearGradient id="paint15_linear_107_77" x1="-10.6072" y1="15.2566" x2="85.9991" y2="15.2566" gradientUnits="userSpaceOnUse">
<stop stop-color="#64E5FF"/>
<stop offset="1" stop-color="#51B1FF"/>
</linearGradient>
<linearGradient id="paint16_linear_107_77" x1="-10.6072" y1="15.2566" x2="85.9991" y2="15.2566" gradientUnits="userSpaceOnUse">
<stop stop-color="#64E5FF"/>
<stop offset="1" stop-color="#51B1FF"/>
</linearGradient>
</defs>
</svg>
